<?xml version="1.0" encoding="UTF-8"?>
<svg version="1.1" xmlns="http://www.w3.org/2000/svg" width="1024" height="1024">
<path d="M0 0 C337.92 0 675.84 0 1024 0 C1024 337.92 1024 675.84 1024 1024 C686.08 1024 348.16 1024 0 1024 C0 686.08 0 348.16 0 0 Z " fill="#FCFDFD" transform="translate(0,0)"/>
<path d="M0 0 C0 147.18 0 294.36 0 446 C-27.23682806 446 -50.72445888 443.62586922 -76 435 C-76.67998047 434.77231934 -77.35996094 434.54463867 -78.06054688 434.31005859 C-109.00255553 423.82111318 -136.5209414 406.58902082 -160 384 C-160.94045166 383.10039551 -160.94045166 383.10039551 -161.89990234 382.18261719 C-171.08505801 373.35082222 -179.53464492 364.33391851 -187 354 C-187.39815918 353.46213867 -187.79631836 352.92427734 -188.20654297 352.37011719 C-221.9110794 306.48570541 -235.91850532 244.71617594 -227.46386719 188.55322266 C-225.4480142 176.7829986 -222.92581972 165.27942816 -219 154 C-218.76619629 153.29004883 -218.53239258 152.58009766 -218.29150391 151.84863281 C-207.65529048 119.58241384 -189.35451825 91.44235608 -166 67 C-164.74896484 65.68708984 -164.74896484 65.68708984 -163.47265625 64.34765625 C-157.67610169 58.40458531 -151.51839927 53.13169373 -145 48 C-143.57300781 46.83017578 -143.57300781 46.83017578 -142.1171875 45.63671875 C-101.10237174 12.75143808 -51.75855598 0 0 0 Z " fill="#1E1D1C" transform="translate(515,288)"/>
<path d="M0 0 C2.97 0 5.94 0 9 0 C9 147.51 9 295.02 9 447 C0.09 447 -8.82 447 -18 447 C-18 446.67 -18 446.34 -18 446 C-12.06 446 -6.12 446 0 446 C0 298.82 0 151.64 0 0 Z " fill="#D4AE60" transform="translate(515,288)"/>
<path d="M0 0 C0.33 0 0.66 0 1 0 C1.84322324 18.43702027 2.16131615 36.84127547 2.13037109 55.29418945 C2.12458993 58.786423 2.12802924 62.27858103 2.13394356 65.77081203 C2.13845146 69.17924514 2.1352879 72.58765852 2.1328125 75.99609375 C2.13483673 77.22750595 2.13686096 78.45891815 2.13894653 79.72764587 C2.11886971 87.20036254 1.74640891 94.56426701 1 102 C3.45963073 101.65820255 3.45963073 101.65820255 6 101 C7.36020151 99.03241727 7.36020151 99.03241727 8 97 C8 99.31 8 101.62 8 104 C-0.58 104 -9.16 104 -18 104 C-18 103.67 -18 103.34 -18 103 C-12.06 103 -6.12 103 0 103 C0 69.01 0 35.02 0 0 Z " fill="#A87D34" transform="translate(515,631)"/>
<path d="M0 0 C0.66 0.33 1.32 0.66 2 1 C-1.50695825 5.63419483 -1.50695825 5.63419483 -3.9375 7.4375 C-6.26127167 9.05882352 -6.26127167 9.05882352 -8.4375 12.125 C-11 15 -11 15 -13.8125 15.875 C-14.8953125 15.936875 -14.8953125 15.936875 -16 16 C-4.57142857 2.28571429 -4.57142857 2.28571429 0 0 Z " fill="#272526" transform="translate(361,344)"/>
<path d="M0 0 C0.33 0 0.66 0 1 0 C1 2.31 1 4.62 1 7 C-7.58 7 -16.16 7 -25 7 C-25 6.67 -25 6.34 -25 6 C-23.02966797 5.90912109 -23.02966797 5.90912109 -21.01953125 5.81640625 C-19.28384459 5.73196744 -17.54816802 5.64732112 -15.8125 5.5625 C-14.94818359 5.52318359 -14.08386719 5.48386719 -13.19335938 5.44335938 C-9.04085878 5.23652984 -5.05462138 4.99896469 -1 4 C-0.67 2.68 -0.34 1.36 0 0 Z " fill="#917A4D" transform="translate(522,728)"/>
<path d="M0 0 C0.66 0.33 1.32 0.66 2 1 C-0.88341534 5.21422242 -3.04303419 6.76075855 -8 8 C-7.04578192 6.85073734 -6.08647955 5.70569459 -5.125 4.5625 C-4.59132813 3.92441406 -4.05765625 3.28632813 -3.5078125 2.62890625 C-2 1 -2 1 0 0 Z " fill="#2D2B2C" transform="translate(361,344)"/>
<path d="M0 0 C0.33 0 0.66 0 1 0 C2.12029814 5.48946087 1.79217969 8.83430559 0 14 C-0.33 14 -0.66 14 -1 14 C-1.08333357 9.1666528 -0.95261487 4.76307437 0 0 Z " fill="#615E5D" transform="translate(288,475)"/>
</svg>
